<?xml version="1.0" encoding="UTF-8"?>
<svg width="217px" height="84px" viewBox="0 0 217 84" version="1.1" xmlns="http://www.w3.org/2000/svg" xmlns:xlink="http://www.w3.org/1999/xlink">
    <!-- Generator: Sketch 52.5 (67469) - http://www.bohemiancoding.com/sketch -->
    <title>Group 30</title>
    <desc>Created with Sketch.</desc>
    <defs>
        <polygon id="path-1" points="0.16121904 0.0854533519 65.7992982 0.0854533519 65.7992982 33.6996765 0.16121904 33.6996765"></polygon>
    </defs>
    <g id="Page-1" stroke="none" stroke-width="1" fill="none" fill-rule="evenodd">
        <g id="Kolekce" transform="translate(-612.000000, -20.000000)">
            <g id="Navigace">
                <g id="Group-30" transform="translate(612.000000, 20.000000)">
                    <path d="M43,47.177696 L43,47 C43.2642658,47.0073622 43.5175713,47.0110433 43.7595106,47.0110433 C44.0042913,47.0110433 44.2385177,47.0073622 44.4630016,47 C44.684238,47.3701163 44.8872071,47.6953903 45.0715031,47.974818 L46.5036534,50.1416381 L47.796161,48.1555258 C48.1493273,47.6147411 48.3847715,47.2295658 48.5033055,47 C48.7704129,47.0073622 48.9961146,47.0110433 49.1800046,47.0110433 C49.348875,47.0110433 49.6216655,47.0073622 50,47 L50,47.177696 C49.7000116,47.1813771 49.5181512,47.1910817 49.4536071,47.20681 C49.3894688,47.2225383 49.3448156,47.2442901 49.3196474,47.2720656 C49.2867664,47.3092111 49.2676873,47.3988957 49.263222,47.541454 C49.2603804,47.5785995 49.2538854,47.8412951 49.2441429,48.3305446 L49.2441429,49.6165816 C49.2441429,49.8685686 49.2494201,50.1138626 49.2591626,50.3527985 C49.2668754,50.5288212 49.2847367,50.6332302 49.3139643,50.6666946 C49.3427859,50.6998243 49.3894688,50.724588 49.4536071,50.7403162 C49.5181512,50.7560445 49.7000116,50.7657492 50,50.7694303 L50,50.9474609 C49.4909534,50.9307287 49.131698,50.9220279 48.9226398,50.9220279 C48.7541754,50.9220279 48.3811181,50.9307287 47.8038738,50.9474609 L47.8038738,50.7694303 C48.1038622,50.7657492 48.2861285,50.7560445 48.3522965,50.7403162 C48.4176525,50.724588 48.4614939,50.7028361 48.4842264,50.6750607 C48.5171074,50.6379152 48.5361865,50.5482306 48.5406518,50.4056722 C48.5434934,50.3665189 48.5499884,50.1038233 48.5597309,49.6165816 L48.5597309,47.5775956 L47.2558571,49.5831172 C47.0516701,49.896344 46.8917305,50.148331 46.776038,50.3387434 C46.6928207,50.4776207 46.5665739,50.6984857 46.3977035,51 L46.2507539,51 C46.2178729,50.9297248 46.1878334,50.8731699 46.1598237,50.8306701 L45.9024588,50.4277587 L44.0960334,47.669288 L44.0960334,49.6165816 C44.0960334,49.8685686 44.1013106,50.1138626 44.1110531,50.3527985 C44.1187659,50.5288212 44.1370332,50.6332302 44.1658548,50.6666946 C44.1946764,50.6998243 44.2417653,50.724588 44.3059035,50.7403162 C44.3700418,50.7560445 44.5519021,50.7657492 44.8518905,50.7694303 L44.8518905,50.9474609 L43.940965,50.9250397 L43,50.9474609 L43,50.7694303 C43.2971468,50.7657492 43.4790072,50.7560445 43.5443633,50.7403162 C43.6097193,50.724588 43.6551844,50.7028361 43.6803526,50.6750607 C43.710798,50.6379152 43.7294711,50.5482306 43.736778,50.4056722 C43.7396196,50.3665189 43.7444908,50.1038233 43.7522037,49.6165816 L43.7522037,48.3305446 C43.7522037,48.0785577 43.7485502,47.8322597 43.7408374,47.591316 C43.7335305,47.4156279 43.7152633,47.3112189 43.6860357,47.2790931 C43.6568082,47.2466326 43.6105312,47.2225383 43.5463929,47.20681 C43.4818488,47.1910817 43.2995825,47.1813771 43,47.177696" id="Fill-1" fill="#1D1D1B"></path>
                    <path d="M55.8479266,49.4361988 L57.8546127,49.4361988 L56.8610854,47.7552048 L55.8479266,49.4361988 Z M54,51 L54,50.8106111 C54.2091187,50.8085964 54.340138,50.802552 54.3917775,50.7921424 C54.443417,50.7820685 54.4907888,50.7625923 54.5347464,50.7337139 C54.5782773,50.7048355 54.6414396,50.6302888 54.72338,50.5094023 C54.7711786,50.4405641 54.9431681,50.1796508 55.2397752,49.7259906 L56.2333025,48.1541303 C56.3417028,47.9811954 56.5734405,47.5963734 56.9285155,47 L57.1871399,47 L58.8835621,49.7958361 C59.1592574,50.2491605 59.342343,50.5335796 59.4319653,50.6487576 C59.4827513,50.7139019 59.537805,50.756548 59.5971264,50.7770316 C59.6568746,50.7975151 59.7908813,50.8085964 60,50.8106111 L60,51 C59.5873106,50.9815312 59.2983854,50.9721289 59.1340778,50.9721289 L57.8546127,51 L57.8546127,50.8106111 C58.1512199,50.8065816 58.331318,50.8002015 58.3953339,50.7907992 C58.4584963,50.7817327 58.5016004,50.7683009 58.5242194,50.7505037 C58.5464116,50.7327065 58.5579344,50.7112156 58.5579344,50.6850235 C58.5579344,50.6443922 58.5395832,50.5910007 58.5024539,50.5261921 L58.0133722,49.6732707 L55.7130664,49.6732707 L55.2798919,50.3895232 C55.202646,50.5177972 55.1642364,50.6114842 55.1642364,50.6712559 C55.1642364,50.6971122 55.1749058,50.7182673 55.1962444,50.7350571 C55.225265,50.7592344 55.2700761,50.7760242 55.3311046,50.7854265 C55.4296892,50.8002015 55.6016786,50.8085964 55.8479266,50.8106111 L55.8479266,51 C55.4002418,50.9832102 55.0652251,50.9748153 54.8428764,50.9748153 C54.5855324,50.9748153 54.3047158,50.9832102 54,51 Z" id="Fill-3" fill="#1D1D1B"></path>
                    <path d="M65.0149384,50.693532 C65.2140203,50.7290891 65.4235954,50.7470369 65.6442469,50.7470369 C65.8721854,50.7470369 66.0735991,50.72638 66.2481965,50.6854047 C66.4227938,50.6440908 66.5723238,50.5858449 66.6962035,50.5110058 C66.8197916,50.435828 66.939882,50.3254318 67.0556001,50.1791399 C67.1713182,50.0331866 67.2605115,49.8459194 67.3231801,49.6183542 C67.3855571,49.3904504 67.4164541,49.1550965 67.4164541,48.9112767 C67.4164541,48.5628175 67.3564089,48.2634609 67.2360271,48.0132069 C67.1159367,47.7632916 66.9343438,47.5712834 66.6921227,47.4385371 C66.4496101,47.3054521 66.1164468,47.2387403 65.6932158,47.2387403 C65.4705239,47.2387403 65.2446258,47.2566881 65.0149384,47.2922452 C65.0091088,47.3843549 65.0050281,47.5472401 65.0012388,47.7812394 L64.990454,48.1889604 L64.990454,49.3105317 L64.998324,50.181849 C65.0003644,50.3152726 65.0059025,50.4856079 65.0149384,50.693532 M64.1734315,51 L64.1734315,50.8652218 C64.2783648,50.8032509 64.3661007,50.7470369 64.4369307,50.6965797 C64.4477155,50.568913 64.4567514,50.3918049 64.463747,50.164917 C64.4762807,49.7792076 64.4829848,49.5113444 64.4829848,49.3609888 L64.4829848,48.2143583 C64.4829848,48.0308161 64.4774466,47.8151033 64.4666618,47.5678971 C64.4593748,47.4124619 64.4468411,47.3156112 64.4284777,47.2780224 C64.415944,47.253979 64.3969977,47.2360312 64.3716389,47.2248561 C64.3118852,47.1987809 64.1880055,47.1845581 64,47.1825262 L64,47.0054182 C64.2640822,47.0169319 64.4975588,47.0223502 64.7001385,47.0223502 C64.8554981,47.0223502 65.0676966,47.0186251 65.3364425,47.0111751 C65.6048969,47.003725 65.8135976,47 65.9619617,47 C66.405305,47 66.7614953,47.0585845 67.0314071,47.1754148 C67.3010275,47.2925838 67.5298404,47.4889942 67.717846,47.7646461 C67.906143,48.0399594 68,48.3762276 68,48.7737894 C68,49.0585845 67.9559863,49.3257704 67.8670845,49.5746698 C67.7784741,49.8242465 67.6580923,50.0419912 67.5062304,50.2282425 C67.3540771,50.4148324 67.1914304,50.5624788 67.0177075,50.6711818 C66.8439846,50.7798849 66.6615172,50.8618354 66.4708883,50.9170335 C66.2799679,50.9722316 66.0179261,51 65.6853458,51 C65.5748743,51 65.4253443,50.996275 65.2373388,50.9888249 C64.9913284,50.9813749 64.8301392,50.9776498 64.7540625,50.9776498 C64.6438825,50.9776498 64.4503388,50.9847613 64.1734315,51" id="Fill-5" fill="#1D1D1B"></path>
                    <path d="M73.0755153,51 L73.0755153,50.822907 C73.326334,50.8212139 73.4916201,50.8059765 73.5702177,50.7778718 C73.6037372,50.7666977 73.62801,50.7487514 73.6422655,50.7247101 C73.666153,50.6867857 73.6827201,50.5885888 73.6927374,50.4291035 C73.7069929,50.1819182 73.713928,49.9682553 73.713928,49.7884534 L73.713928,48.3524084 C73.713928,48.097435 73.7100751,47.8478795 73.7031401,47.6044189 C73.6958197,47.42631 73.678482,47.3210023 73.651127,47.2881571 C73.6237719,47.2553119 73.5794645,47.230932 73.5182046,47.2150174 C73.45733,47.1991027 73.2847236,47.189283 73,47.1855583 L73,47.0057564 L74.022539,47.0226869 L75.1059526,47.0084653 C75.6245425,47.0027089 76.0013485,47 76.2359854,47 C76.4725486,47 76.6960123,47.0104969 76.9063764,47.0308135 C76.8686188,47.1378143 76.8420343,47.2305934 76.8277788,47.3094895 C76.8231555,47.3260814 76.8015797,47.5211208 76.7630514,47.8939304 L76.5368908,47.8939304 C76.5395877,47.7029544 76.5237912,47.5285702 76.4902716,47.3711166 C76.3588904,47.3281131 76.2140243,47.2989926 76.0564438,47.2837552 C75.7886727,47.2576822 75.5209016,47.2444764 75.2527451,47.2444764 C75.1957234,47.2444764 75.0674244,47.2485397 74.869004,47.2556506 C74.6705837,47.2634386 74.5284146,47.2698722 74.4421113,47.2756285 C74.4324793,47.4835351 74.4255442,47.6782358 74.4205355,47.860408 L74.4062801,48.8102091 C74.6863803,48.8213832 74.9433635,48.8271396 75.1776151,48.8271396 C75.4619534,48.8271396 75.7046812,48.8169813 75.9057985,48.7963261 C75.9824697,48.7888767 76.0314005,48.7739778 76.0529763,48.751291 C76.0741668,48.7289427 76.0934309,48.6517396 76.1103834,48.5210361 L76.1319592,48.3243037 L76.3469466,48.3243037 L76.3469466,48.3774655 L76.3288384,48.9619064 L76.3469466,49.6171167 L76.0961279,49.6171167 L76.08534,49.4261407 C76.0803313,49.286972 76.0641495,49.2013036 76.0367945,49.1674426 C76.0090541,49.1335816 75.957041,49.1102176 75.8807552,49.0970118 C75.7443652,49.0743249 75.4800616,49.0631508 75.0878443,49.0631508 C74.9279522,49.0631508 74.7006357,49.0678913 74.4062801,49.0773724 C74.3943364,49.2646237 74.3881718,49.5429611 74.3881718,49.9120461 C74.3881718,50.2591213 74.3943364,50.5222213 74.4062801,50.7020232 C74.7507224,50.7226784 75.1371605,50.7328367 75.565209,50.7328367 C75.8688114,50.7328367 76.08534,50.7253873 76.2140243,50.7104884 C76.3434791,50.6955896 76.4629166,50.6698552 76.5731073,50.6346398 C76.6016182,50.5763989 76.6305144,50.4978414 76.6594105,50.3986286 C76.7118089,50.2313553 76.7464843,50.1060696 76.7630514,50.0217557 L77,50.0217557 C76.9375843,50.4003217 76.9063764,50.7142132 76.9063764,50.9634301 C76.701021,50.98781 76.4513581,51 76.1570025,51 L74.0152186,50.9776517 C73.9840108,50.9776517 73.6707763,50.9847625 73.0755153,51" id="Fill-7" fill="#1D1D1B"></path>
                    <path d="M91.3274574,50.7104639 C91.5056524,50.7443278 91.6930446,50.7609211 91.8904005,50.7609211 C92.2034873,50.7609211 92.4564093,50.7229936 92.6487833,50.6471385 C92.8411573,50.5712834 92.9890784,50.4564849 93.0921632,50.3030816 C93.1956313,50.1493397 93.2473654,49.9729089 93.2473654,49.7744666 C93.2473654,49.5777176 93.1986971,49.4124619 93.1013604,49.278361 C93.0036405,49.1442601 92.858402,49.0450389 92.6648783,48.980359 C92.4713547,48.915679 92.1525196,48.8831697 91.7083733,48.8831697 C91.6068212,48.8831697 91.4761449,48.8868947 91.3171106,48.8946834 L91.3171106,49.9600406 C91.3171106,50.0629868 91.3201763,50.3132408 91.3274574,50.7104639 Z M91.3171106,48.6613613 C91.4520023,48.6671182 91.570799,48.6698273 91.6727342,48.6698273 C91.9674267,48.6698273 92.1946733,48.6518794 92.3548573,48.6163224 C92.5150412,48.5807653 92.6392029,48.5340332 92.726576,48.476126 C92.8147155,48.4178801 92.8875263,48.3396546 92.9461583,48.2404335 C93.0040238,48.1412123 93.0331481,48.0253979 93.0331481,47.8926515 C93.0331481,47.6586522 92.938494,47.4900102 92.7499521,47.3863867 C92.5614102,47.2824247 92.2854953,47.2306129 91.9222073,47.2306129 C91.7202529,47.2306129 91.5294118,47.2444971 91.3489174,47.2726041 C91.3274574,47.4280393 91.3171106,47.6681341 91.3171106,47.9935659 L91.3171106,48.6613613 Z M90.2966085,51 L90.2966085,50.8679309 C90.4437632,50.8100237 90.5257712,50.7737894 90.5426327,50.7599052 C90.5591109,50.7456824 90.5721403,50.7206231 90.5821039,50.6854047 C90.5962828,50.6291907 90.6085457,50.5093126 90.6192757,50.3267863 C90.6300057,50.1439214 90.6353708,50.0050796 90.6353708,49.9095835 L90.6353708,48.2143583 C90.6353708,48.0308161 90.6280897,47.8151033 90.6139107,47.5678971 C90.6043303,47.4124619 90.5874689,47.3159499 90.5640927,47.2780224 C90.5472313,47.253979 90.5223223,47.2360312 90.4889826,47.2248561 C90.4104235,47.1987809 90.247557,47.1845581 90,47.1825262 L90,47.0057569 C90.0785591,47.0091432 90.1774286,47.0111751 90.2966085,47.0111751 L91.0385131,47.0250593 L92.3517915,47 C92.6989845,47 92.9664687,47.028107 93.1546273,47.084321 C93.3424028,47.1401964 93.4891742,47.2316289 93.5949416,47.3579411 C93.7007089,47.4845919 93.7539759,47.6254656 93.7539759,47.7805621 C93.7539759,47.9041653 93.722169,48.0203183 93.6593217,48.1286827 C93.5960912,48.2373857 93.5117839,48.3315273 93.4060165,48.4111073 C93.2998659,48.4903488 93.1822188,48.5553674 93.0526921,48.6048087 C92.9231654,48.6545886 92.7537842,48.6999661 92.5441655,48.7409414 C92.8223798,48.7615984 93.0473271,48.7920759 93.2186243,48.8323739 C93.3899214,48.8726719 93.5332439,48.9326109 93.6485917,49.012191 C93.7639395,49.0921097 93.8513125,49.189299 93.9107109,49.3037589 C93.9701092,49.4182188 94,49.5458855 94,49.6864206 C94,49.9637657 93.8934662,50.2082628 93.6807818,50.4192347 C93.4677141,50.6302066 93.1937153,50.786319 92.8580188,50.8872333 C92.6085457,50.9624111 92.3123204,51 91.969726,51 L90.935045,50.9776498 C90.8235294,50.9776498 90.6104618,50.9850999 90.2966085,51 Z" id="Fill-9" fill="#1D1D1B"></path>
                    <path d="M100,47.2996405 L100,47.1300895 L100.739252,47 C100.820952,47.0257504 100.877285,47.050163 100.907923,47.073238 C100.93889,47.0966474 101.00313,47.1672101 101.101301,47.2855948 C101.246253,47.4614999 101.414265,47.7012792 101.604349,48.0045983 C101.794433,48.3082518 101.997035,48.65538 102.211827,49.0459828 C102.428266,48.7440013 102.650305,48.416604 102.877285,48.0627874 L103.530555,47.0555138 L104,47.0555138 L104,47.1300895 C103.887663,47.2431235 103.681107,47.4882535 103.380333,47.8658139 C103.206391,48.0845247 102.980399,48.4018895 102.702355,48.8182426 C102.528743,49.0754118 102.430572,49.2329237 102.40817,49.2914472 C102.385439,49.3496363 102.374238,49.4048157 102.374238,49.4566508 L102.374238,49.6703453 C102.374238,49.9221637 102.377203,50.1672937 102.383462,50.4060697 C102.389722,50.5816403 102.404546,50.6863139 102.427936,50.7197559 C102.451326,50.7528635 102.489211,50.7772761 102.541591,50.7929939 C102.593642,50.8090461 102.741229,50.8184098 102.984681,50.8224229 L102.984681,51 C102.651293,50.9852855 102.363037,50.9779283 102.119914,50.9779283 C101.886674,50.9779283 101.578653,50.9852855 101.196508,51 L101.196508,50.8224229 C101.437654,50.8184098 101.584912,50.8090461 101.63828,50.7929939 C101.691319,50.7772761 101.726898,50.7558733 101.745347,50.7281164 C101.772031,50.6909957 101.788503,50.6013711 101.794433,50.4585737 C101.796409,50.419781 101.800692,50.1572611 101.806622,49.6703453 L101.806622,49.3456233 C101.764125,49.2623526 101.721957,49.1874425 101.681107,49.1205585 C101.652446,49.0744085 101.548015,48.9152245 101.368144,48.6433409 L101.165541,48.3433659 C101.006424,48.1065964 100.887498,47.9380487 100.809751,47.838057 C100.660517,47.6457654 100.536979,47.5076499 100.438807,47.4243792 C100.385439,47.3782292 100.329764,47.3461249 100.271454,47.3273974 C100.213144,47.3086698 100.122879,47.2996405 100,47.2996405" id="Fill-11" fill="#1D1D1B"></path>
                    <path d="M115.314417,51 L115.314417,50.8535097 C115.458869,50.7989149 115.550793,50.7558494 115.590189,50.7243133 C115.613826,50.7073584 115.62996,50.6856562 115.63934,50.6592065 C115.660351,50.6069854 115.674233,50.4944049 115.681362,50.3214649 C115.690367,50.0644286 115.695244,49.9114954 115.695244,49.8626653 L115.695244,48.3485927 C115.695244,48.0932519 115.691868,47.8433367 115.684739,47.5995253 C115.67761,47.4211597 115.660726,47.3157002 115.634087,47.2828077 C115.607073,47.2499152 115.5643,47.2255002 115.504643,47.2095626 C115.445362,47.193625 115.276897,47.1837911 115,47.180061 L115,47 C115.568427,47.0149203 115.919614,47.0227196 116.055061,47.0227196 C116.204015,47.0227196 116.538317,47.0149203 117.057593,47 L117.057593,47.180061 C116.780321,47.1837911 116.612231,47.193625 116.55295,47.2095626 C116.493669,47.2255002 116.452021,47.2478806 116.428759,47.2760258 C116.400994,47.3133266 116.38336,47.4042048 116.376231,47.5486606 C116.37398,47.5866395 116.369478,47.8528315 116.362349,48.3485927 L116.362349,50.2400814 C116.362349,50.4370973 116.367226,50.5974907 116.376231,50.7212614 C116.641872,50.7344863 116.904887,50.7409291 117.166026,50.7409291 C117.823,50.7409291 118.282619,50.7073584 118.545634,50.6398779 C118.576025,50.5832486 118.603039,50.5184808 118.625926,50.4452357 L118.765876,49.9779586 L119,49.9779586 C118.948973,50.2580536 118.898696,50.5859613 118.84992,50.9633774 C118.754244,50.9786368 118.678454,50.9877925 118.622549,50.9915226 C118.50136,50.9969481 118.315261,51 118.063502,51 L115.995404,50.9776195 C115.77216,50.9776195 115.544789,50.9847406 115.314417,51" id="Fill-13" fill="#1D1D1B"></path>
                    <path d="M123.824957,48.8014173 C123.824957,48.9724688 123.850511,49.1467785 123.900341,49.3233689 C123.950596,49.5002851 124.014055,49.6521137 124.090716,49.7804838 C124.217632,49.9968233 124.383731,50.1786267 124.588586,50.3252423 C124.793015,50.4721838 125.022147,50.5803535 125.274276,50.6497516 C125.526831,50.7194754 125.806218,50.7540116 126.113288,50.7540116 C126.538756,50.7540116 126.908859,50.6829844 127.223169,50.5415818 C127.53833,50.4001792 127.772998,50.2007819 127.927598,49.9440417 C128.082198,49.6869756 128.159284,49.3911379 128.159284,49.055551 C128.159284,48.768836 128.103918,48.5046021 127.99276,48.263175 C127.924191,48.1152562 127.832624,47.9813472 127.719336,47.8614482 C127.605622,47.7415492 127.470187,47.6369634 127.312606,47.5476908 C127.155451,47.4584182 126.951448,47.3831555 126.70017,47.3219027 C126.448893,47.26065 126.177598,47.2300236 125.887138,47.2300236 C125.46678,47.2300236 125.097956,47.2938829 124.780664,47.4219272 C124.463373,47.5499715 124.224872,47.7353588 124.064736,47.9777633 C123.905026,48.2201678 123.824957,48.4948277 123.824957,48.8014173 M123,49.0255763 C123,48.7408162 123.063032,48.4775597 123.188671,48.2361326 C123.31431,47.9943797 123.522147,47.7770628 123.813458,47.5841818 C124.103918,47.3913008 124.433135,47.2459884 124.800681,47.1475931 C125.167802,47.0491977 125.588586,47 126.061755,47 C126.497871,47 126.894378,47.0420298 127.251278,47.1257636 C127.608177,47.2094974 127.900767,47.3205995 128.129472,47.4584182 C128.358603,47.5965627 128.53833,47.7474139 128.670784,47.9116234 C128.771295,48.0341289 128.851363,48.1784638 128.910562,48.3443024 C128.970187,48.5098151 129,48.6877087 129,48.8770058 C129,49.4846461 128.700596,49.9903071 128.101789,50.3943146 C127.502981,50.7983221 126.747445,51 125.835605,51 C125.420358,51 125.03322,50.9540604 124.673765,50.8621813 C124.313884,50.7703022 124.010221,50.6334609 123.761925,50.4523092 C123.513203,50.2711574 123.324106,50.051234 123.194634,49.7925389 C123.065162,49.5338438 123,49.2784068 123,49.0255763" id="Fill-15" fill="#1D1D1B"></path>
                    <path d="M134.876435,51 C134.81994,50.8380335 134.703021,50.5248758 134.524773,50.0608637 L133.568278,47.7098241 C133.467069,47.4603081 133.40423,47.3158515 133.379758,47.2764542 C133.36284,47.2525465 133.339577,47.2346999 133.309366,47.2235878 C133.268278,47.204731 133.164955,47.1902517 133,47.1788029 L133,47 C133.339577,47.0148161 133.589728,47.0222241 133.751057,47.0222241 C133.903021,47.0222241 134.161027,47.0148161 134.524773,47 L134.524773,47.1983332 C134.29577,47.2023739 134.163444,47.2067514 134.126888,47.2124758 C134.09003,47.2182002 134.064653,47.2289755 134.050755,47.2448018 C134.036858,47.260628 134.029607,47.2784746 134.029607,47.2990151 C134.029607,47.3195555 134.042598,47.3680444 134.068882,47.4441451 C134.149849,47.6923142 134.21994,47.8916575 134.279758,48.042512 L135.160423,50.2507787 L135.894562,48.4199848 C136.001511,48.1573365 136.103625,47.8711171 136.201208,47.5616634 C136.242296,47.4293291 136.263142,47.347504 136.263142,47.3158515 C136.263142,47.2710666 136.238671,47.2414345 136.19003,47.2262817 C136.152568,47.213486 136.008157,47.1976597 135.756798,47.1788029 L135.756798,47 C136.040181,47.011112 136.25287,47.0168364 136.395166,47.0168364 C136.541692,47.0168364 136.743202,47.011112 137,47 L137,47.1788029 C136.857704,47.1845273 136.772205,47.193619 136.744411,47.2067514 C136.716012,47.2198838 136.689728,47.2461487 136.665559,47.2852092 C136.648338,47.3131577 136.579154,47.4640121 136.4571,47.7377725 L135.579456,49.8844179 L135.36284,50.435306 C135.318127,50.5450796 135.281571,50.6403738 135.253172,50.7205152 C135.225076,50.8003199 135.19426,50.8939305 135.160423,51 L134.876435,51 Z" id="Fill-17" fill="#1D1D1B"></path>
                    <path d="M142.07513,51 L142.07513,50.822907 C142.325949,50.8212139 142.491235,50.8059765 142.570218,50.7778718 C142.603737,50.7666977 142.627625,50.7487514 142.64188,50.7247101 C142.665768,50.6867857 142.682335,50.5885888 142.692352,50.4291035 C142.706608,50.1819182 142.713543,49.9682553 142.713543,49.7884534 L142.713543,48.3524084 C142.713543,48.097435 142.710075,47.8478795 142.702755,47.6044189 C142.695434,47.42631 142.678097,47.3210023 142.650742,47.2881571 C142.623387,47.2553119 142.579464,47.230932 142.517819,47.2150174 C142.456945,47.1991027 142.284338,47.189283 142,47.1855583 L142,47.0057564 L143.022154,47.0226869 L144.105567,47.0084653 C144.624542,47.0027089 145.001348,47 145.2356,47 C145.472163,47 145.695627,47.0104969 145.906376,47.0308135 C145.868233,47.1378143 145.841649,47.2305934 145.827394,47.3094895 C145.82277,47.3260814 145.801194,47.5211208 145.762666,47.8939304 L145.536891,47.8939304 C145.539202,47.7029544 145.523791,47.5285702 145.490272,47.3711166 C145.358505,47.3281131 145.214024,47.2989926 145.056059,47.2837552 C144.788287,47.2576822 144.520516,47.2444764 144.25236,47.2444764 C144.195338,47.2444764 144.067424,47.2485397 143.868619,47.2556506 C143.670198,47.2634386 143.528029,47.2698722 143.442111,47.2756285 C143.432094,47.4835351 143.425159,47.6782358 143.42015,47.860408 L143.405895,48.8102091 C143.685995,48.8213832 143.942978,48.8271396 144.17723,48.8271396 C144.461568,48.8271396 144.704681,48.8169813 144.905798,48.7963261 C144.982084,48.7888767 145.031015,48.7739778 145.052591,48.751291 C145.074167,48.7289427 145.093431,48.6517396 145.109998,48.5210361 L145.131574,48.3243037 L145.346561,48.3243037 L145.346561,48.3774655 L145.328838,48.9619064 L145.346561,49.6171167 L145.095743,49.6171167 L145.084955,49.4261407 C145.079946,49.286972 145.064149,49.2013036 145.036794,49.1674426 C145.008669,49.1335816 144.956656,49.1102176 144.88037,49.0970118 C144.744365,49.0743249 144.479676,49.0631508 144.087844,49.0631508 C143.927567,49.0631508 143.70025,49.0678913 143.405895,49.0773724 C143.393951,49.2646237 143.388172,49.5429611 143.388172,49.9120461 C143.388172,50.2591213 143.393951,50.5222213 143.405895,50.7020232 C143.750722,50.7226784 144.136775,50.7328367 144.564824,50.7328367 C144.868426,50.7328367 145.084955,50.7253873 145.214024,50.7104884 C145.343094,50.6955896 145.462917,50.6698552 145.572722,50.6346398 C145.601233,50.5763989 145.630514,50.4978414 145.659025,50.3986286 C145.711424,50.2313553 145.746099,50.1060696 145.762666,50.0217557 L146,50.0217557 C145.937199,50.4003217 145.906376,50.7142132 145.906376,50.9634301 C145.700636,50.98781 145.450973,51 145.156617,51 L143.014833,50.9776517 C142.983626,50.9776517 142.670776,50.9847625 142.07513,51" id="Fill-19" fill="#1D1D1B"></path>
                    <path d="M172.99859,26.221221 C172.955641,24.5867315 171.92641,22.7569625 170.418162,22.1847935 C168.644093,21.5114697 166.801924,22.8061729 165.091698,24.007923 C162.329413,25.9501731 159.471556,29.3687362 160.306936,30.7934955 C160.577786,31.2559174 161.204224,31.4492441 161.689433,31.4590081 C164.467195,31.514858 165.83228,25.6228846 167.793236,25.9345507 C168.258324,26.0083664 168.702906,26.42314 168.841426,26.8750168 C169.570013,29.2523496 162.139044,33.6734778 156.406692,35.8637328 C153.132113,37.115865 149.933759,38.2887138 148.022717,36.7913105 C146.968336,35.9652781 146.880116,34.7811032 144.781414,32.7080159 C143.568392,31.5101713 142.962461,30.9114444 142.280305,30.7634225 C139.350867,30.1279829 136.922114,35.0173914 134.612922,34.1569898 C134.106433,33.9687404 133.637088,33.6656666 133.150331,32.8044839 C131.80498,30.4267606 131.834773,29.0074691 128.524596,29.8077245 C126.222369,30.36349 124.515626,32.0921043 122.686613,33.4949923 C118.791787,36.4819877 118.09338,36.6440697 117.488997,36.4757388 C116.380833,36.1671972 116.521675,35.0857392 114.601734,33.545765 C113.842579,32.9368835 112.523926,31.8788591 110.981627,31.9042454 C109.574754,31.9268978 108.654637,32.8404154 107.400987,33.9218733 C103.449669,37.3295008 101.473624,39.0339004 99.7862266,38.8780673 C97.9846857,38.7120798 97.9266464,36.9303495 93.0954522,32.7869088 C91.2861727,31.2348272 90.364895,30.459177 89.5682084,30.4740182 C86.8039884,30.525572 85.7565719,35.1888468 81.9844021,35.6325218 C81.511575,35.6875907 80.8139422,35.7602346 80.1894389,35.3626456 C78.943141,34.5702013 79.5811867,32.725591 78.4269778,31.4480725 C77.3551848,30.2623353 75.8879504,29.744454 74.3154714,29.7690592 C71.6030999,29.8116301 68.7874183,31.9155716 66.3358368,33.0446777 C66.3358368,33.0446777 60.9060637,36.2132831 53.7881197,38.6515431 C51.4402352,39.4560947 49.5570523,39.9470274 48.5634189,38.9940634 C47.51252,37.9860305 48.0770493,35.9570764 48.1041343,35.8637328 C48.5614842,34.2956383 50.0291055,33.0677207 51.5040785,32.9478191 C53.3516639,32.7974539 54.1665362,34.4698276 55.386523,33.995689 C56.4196231,33.5941943 57.0932663,31.9050265 56.6030274,30.7634225 C55.9990314,29.3570194 53.8419028,29.2773454 53.2723435,29.2562552 C49.6282472,29.1215123 45.635141,32.335032 44.4964093,36.4847216 C44.1644243,37.6942829 43.4342895,40.354771 44.7881537,41.8756079 C47.2176802,44.6048343 54.5968011,41.6924357 58.3225394,40.2219809 C62.8867527,38.4199416 66.824528,36.4437129 66.824528,36.4437129 C70.3045665,34.6967424 72.3653498,33.4032109 73.969557,34.300325 C75.0545056,34.9064726 75.1206704,35.6852473 76.7918163,37.8009056 C79.470912,41.1925201 82.3419244,39.8763362 85.2775539,37.3962864 C89.1599984,34.1163717 89.7311055,35.6086977 92.7684973,39.1217762 C93.6267056,40.1145772 95.1012916,41.2878165 96.8208036,41.9056809 C100.343404,43.1710921 104.093132,41.2432928 105.183885,40.6168361 C108.822177,38.5296887 110.019335,35.3532721 111.500886,35.8637328 C112.26004,36.1257979 112.065028,37.0022123 113.682778,38.7620713 C114.50771,39.6591854 115.266478,40.4645181 116.324341,40.6168361 C117.210796,40.74533 117.972272,40.3664878 119.310272,39.4580475 C122.645986,37.1931957 123.342458,35.86178 125.97164,34.3569561 C127.630791,33.4075071 128.460366,32.9329779 129.417241,33.1977769 C131.628153,33.8097829 131.24935,37.449793 133.20721,38.0664857 C135.631706,38.8304191 138.086383,33.840637 140.902065,34.7049442 C141.462725,34.8767901 142.156101,35.5540195 143.543628,36.9073065 C145.111851,38.4375168 145.259271,38.9901578 146.185192,39.573653 C146.957115,40.0602895 148.093525,40.4559258 150.319914,40.2692386 C156.795943,39.725971 164.236586,34.9646659 164.236586,34.9646659 C169.642369,31.5047035 173.079845,29.3050751 172.99859,26.221221" id="Fill-21" fill="#1D1D1B"></path>
                    <path d="M113.103082,25.9268643 C114.228214,26.2874326 115.878533,25.2634962 115.993476,23.9813463 C116.066366,23.1671599 115.521088,22.2254175 114.728636,22.0362161 C113.500242,21.7427213 111.798526,23.2896755 112.019534,24.6299815 C112.104106,25.1444698 112.489118,25.7302964 113.103082,25.9268643" id="Fill-23" fill="#1D1D1B"></path>
                    <path d="M47.8025379,21.1207489 C51.2251549,13.2357203 52.1150818,11.0714905 52.8342264,8.03917356 C53.9123624,3.49205028 54.4653718,1.15899357 53.5053506,0.325289914 C51.7812624,-1.17135882 45.0250984,2.02592175 24.7550574,19.873284 C24.8913735,20.1220816 25.1237304,20.4605081 25.5106046,20.71201 C27.8097761,22.2090451 32.6222746,18.7181525 36.9766428,15.340455 C48.1332592,6.6862402 51.2100517,2.71204672 52.1348322,3.30158879 C53.3020383,4.04604984 49.9092404,11.3430817 37.6593849,35.4594473 C34.8683913,40.9542421 29.8765906,50.7183877 22.1867392,62.7989778 C13.812984,75.9524107 9.33198123,80.7120164 6.45850096,79.8010464 C5.47795486,79.4896631 4.96212256,78.6061227 4.63140124,78.021603 C0.567091884,70.829267 11.8185873,56.2529746 18.606894,49.2082174 C21.4687564,46.2384861 26.2115479,41.8841423 33.2480892,37.789027 C33.2054904,37.6939895 33.0869884,37.4540775 32.8488226,37.2582074 C29.4405342,34.4484174 8.96989174,46.7754871 2.36901961,65.1416928 C0.490414109,70.369146 -1.79442869,80.3415244 2.23580165,83.1996058 C4.71543699,84.9585737 8.66589147,83.3719097 10.3551261,82.6687861 C13.124433,81.5163589 20.3743554,78.0022864 35.3776401,48.0129073 C39.4400132,39.8933754 43.0233438,31.9295352 45.2353814,27.0134652 C45.4960084,26.4339678 46.2647225,24.6630236 47.8025379,21.1207489" id="Fill-25" fill="#1D1D1B"></path>
                    <g id="Group-29" transform="translate(151.000000, 21.000000)">
                        <mask id="mask-2" fill="white">
                            <use xlink:href="#path-1"></use>
                        </mask>
                        <g id="Clip-28"></g>
                        <path d="M65.7572281,1.18461978 C65.5569123,0.530026374 64.6649474,0.123520879 64.0007018,0.0880263736 C63.0944561,0.0398285714 62.4506667,0.673872527 61.4101053,1.56011429 C60.3375088,2.4740044 59.1518246,3.25675165 58.0599298,4.14934505 C56.3053333,5.58294945 54.933614,6.46956484 52.2457544,8.20655385 C50.4761053,9.35022418 49.192,10.0500264 48.1209474,10.7240484 C43.570807,13.589389 38.9917193,16.411389 34.4218947,19.2472132 C32.0663509,20.7084659 29.7027018,22.1499165 27.2722807,23.4927297 C25.4497544,24.4989055 23.606,25.4692132 21.7421754,26.4021582 C19.9451228,27.3018505 18.139193,28.1794989 16.2491228,28.8837846 C14.7249474,29.4513231 13.1637193,29.9254549 11.5747018,30.2886198 C10.0258246,30.642444 8.31638596,31.0399824 6.72929825,30.7022242 C5.22094737,30.3816527 3.62536842,28.945433 4.17459649,27.3321143 C4.40617544,26.6524879 4.94073684,25.9650154 4.80564912,25.2147736 C4.68407018,24.5388835 4.14603509,23.9250154 3.40073684,24.0636308 C2.65505263,24.2022462 2.10003509,24.7499824 1.63070175,25.3914989 C0.961438596,26.3046418 -0.365508772,28.116356 0.384035088,30.2023121 C1.0185614,31.9680703 2.70484211,32.7168176 3.06996491,32.8692571 C3.44859649,33.0467297 3.82761404,33.2245758 4.20624561,33.402422 C4.80564912,33.532444 5.64357895,33.6706857 6.6505614,33.6964659 C6.97052632,33.7043121 7.74708772,33.7132791 9.15045614,33.519367 C11.242386,33.2305538 13.2806667,32.6447077 15.2822807,32.0016967 C15.7917544,31.8380484 16.2657193,31.6744 16.7049474,31.5144879 C17.7559298,31.1318945 19.9570877,30.3129055 24.7287719,27.9598066 C26.7064561,26.9846418 27.0565263,26.7671912 28.0874386,26.2261802 C29.2758246,25.6025978 29.370386,25.5880264 30.2380351,25.1333231 C31.1141754,24.6741363 31.3492281,24.5145978 31.954807,24.1701143 C32.3079649,23.9687297 32.5557544,23.8278725 32.8826667,23.6582462 C33.3161053,23.4336967 33.4361404,23.3933451 33.8051228,23.2110154 C34.2744561,22.9789934 34.4921404,22.8400044 35.1270526,22.4731033 C35.9236842,22.0120484 36.233614,21.8532571 36.7029474,21.5868615 C38.2533684,20.7077187 38.7427719,20.2190154 40.6174035,19.0772132 C41.8362807,18.334444 41.7907368,18.411411 43.2103158,17.5516967 C44.9008421,16.5272132 44.8525965,16.4864879 46.5655088,15.4354769 C48.4459298,14.2817187 49.1526316,13.932378 50.3753684,13.1305758 C50.5143158,13.039411 51.138807,12.6287956 52.0272982,12.0507956 C52.2689123,11.8938725 52.5340702,11.7220044 52.8343509,11.5280923 C53.878,10.8540703 54.6240702,10.3799385 55.3257544,9.92934505 C58.9302807,7.61211429 59.1757544,7.4876967 60.1997193,6.76585055 C63.5290526,4.41798242 66.1671228,2.52481758 65.7572281,1.18461978" id="Fill-27" fill="#1D1D1B" mask="url(#mask-2)"></path>
                    </g>
                </g>
            </g>
        </g>
    </g>
</svg>